<svg xmlns="http://www.w3.org/2000/svg" version="1.1" viewBox="0.00 0.00 256.00 256.00">
<rect fill="#922a8e" x="-14.73" y="-14.69" transform="translate(175.74,63.37) rotate(0.1)" width="29.46" height="29.38" rx="0.42"/>
    <rect fill="#922a8e" x="217.01" y="179.24" width="31.98" height="26.82" rx="0.55"/>
<path fill="#922a8e" d="
  M 23.52 139.77
  L 4.14 118.66
  A 0.56 0.56 0.0 0 1 4.16 117.88
  L 73.43 48.85
  A 0.56 0.56 0.0 0 1 73.82 48.69
  L 139.22 48.70
  A 0.56 0.56 0.0 0 1 139.78 49.26
  L 139.76 77.50
  A 0.56 0.56 0.0 0 1 139.20 78.06
  L 87.49 78.06
  A 0.56 0.56 0.0 0 0 87.10 78.22
  L 24.32 139.79
  A 0.56 0.56 0.0 0 1 23.52 139.77
  Z"
/>
<path fill="#922a8e" d="
  M 85.46 163.76
  L 104.79 179.11
  A 0.59 0.59 0.0 0 0 105.16 179.24
  L 208.31 179.25
  A 0.59 0.59 0.0 0 1 208.90 179.84
  L 208.91 205.47
  A 0.59 0.59 0.0 0 1 208.32 206.06
  L 90.64 206.06
  A 0.59 0.59 0.0 0 1 90.21 205.87
  L 45.86 158.66
  A 0.59 0.59 0.0 0 1 45.87 157.84
  L 90.88 112.85
  A 0.59 0.59 0.0 0 1 91.29 112.68
  L 189.90 112.70
  A 0.59 0.59 0.0 0 1 190.49 113.29
  L 190.45 146.90
  A 0.59 0.59 0.0 0 1 189.86 147.49
  L 104.51 147.50
  A 0.59 0.59 0.0 0 0 104.14 147.63
  L 85.46 162.84
  A 0.59 0.59 0.0 0 0 85.46 163.76
  Z"
/>
<rect fill="#922a8e" x="217.01" y="179.24" width="31.98" height="26.82" rx="0.55"/>
</svg>
